<svg xmlns="http://www.w3.org/2000/svg" viewBox="0 0 180 180">
  <defs>
    <radialGradient id="bg" cx="50%" cy="35%" r="70%">
      <stop offset="0%" stop-color="#142B18"/>
      <stop offset="100%" stop-color="#050E07"/>
    </radialGradient>
    <linearGradient id="leaf" x1="50%" y1="0%" x2="50%" y2="100%">
      <stop offset="0%" stop-color="#FFFFFF"/>
      <stop offset="100%" stop-color="#CBEDCF"/>
    </linearGradient>
  </defs>
  <rect width="180" height="180" rx="42" fill="url(#bg)"/>
  <ellipse cx="90" cy="88" rx="62" ry="55" fill="#2EBD52" opacity="0.07"/>
  <path d="M 90 28 A 62 62 0 1 1 28 90" fill="none" stroke="#3DCC63" stroke-width="2.5" stroke-linecap="round" opacity="0.38"/>
  <circle cx="28" cy="90" r="4" fill="#3DCC63" opacity="0.6"/>
  <g transform="translate(90,108)" fill="url(#leaf)">
    <path d="M 0 0 C -7.5 -10, -7.5 -33, 0 -44 C 7.5 -33, 7.5 -10, 0 0 Z"/>
    <path transform="rotate(27)"  d="M 0 0 C -6.5 -9, -6.5 -28, 0 -37 C 6.5 -28, 6.5 -9, 0 0 Z"/>
    <path transform="rotate(-27)" d="M 0 0 C -6.5 -9, -6.5 -28, 0 -37 C 6.5 -28, 6.5 -9, 0 0 Z"/>
    <path transform="rotate(56)"  d="M 0 0 C -5 -6.5, -5 -19, 0 -26 C 5 -19, 5 -6.5, 0 0 Z"/>
    <path transform="rotate(-56)" d="M 0 0 C -5 -6.5, -5 -19, 0 -26 C 5 -19, 5 -6.5, 0 0 Z"/>
    <path transform="rotate(82)"  d="M 0 0 C -3.5 -4.5, -3.5 -11, 0 -15 C 3.5 -11, 3.5 -4.5, 0 0 Z"/>
    <path transform="rotate(-82)" d="M 0 0 C -3.5 -4.5, -3.5 -11, 0 -15 C 3.5 -11, 3.5 -4.5, 0 0 Z"/>
    <line x1="0" y1="-2" x2="0" y2="-38" stroke="rgba(5,14,7,0.18)" stroke-width="1.2" stroke-linecap="round"/>
    <rect x="-2.8" y="0" width="5.6" height="12" rx="2.8"/>
  </g>
</svg>
